<svg width="500" height="500" viewBox="0 0 500 500" fill="none" xmlns="http://www.w3.org/2000/svg">
<path d="M372.31 154L459.92 153.86C459.92 153.86 455.55 148.2 450.75 147.49C450.75 147.49 441.37 119.7 425.75 119.49C411.21 119.33 405.41 136.62 405.41 136.62C405.41 136.62 398.66 128.88 392.23 132.43C385.8 135.98 382.23 146.14 382.23 146.14C382.23 146.14 374.93 150 372.31 154Z" fill="#EBEBEB"/>
<path d="M150.87 249.69L40.08 249.86C40.08 249.86 40.08 242.78 55.33 241.37C55.33 241.37 69.22 210.37 90.5 214.54C103.76 217.11 110.56 235.29 110.56 235.29C110.56 235.29 120.56 220.96 128.56 223.72C136.56 226.48 141.35 241.72 141.35 241.72C141.35 241.72 149.61 245.69 150.87 249.69Z" fill="#EBEBEB"/>
<path d="M383.6 446.74L272.81 446.91C272.81 446.91 272.81 439.83 288.06 438.42C288.06 438.42 301.95 407.42 323.23 411.58C336.49 414.15 343.29 432.33 343.29 432.33C343.29 432.33 353.29 418 361.29 420.76C369.29 423.52 374.08 438.76 374.08 438.76C374.08 438.76 382.34 442.74 383.6 446.74Z" fill="#EBEBEB"/>
<path d="M382 77.27L306.67 77.38C306.67 77.38 313.77 70.75 316.93 70.75C320.09 70.75 329.27 48.52 341.06 49.44C352.85 50.36 359.11 66.9 359.11 66.9C359.11 66.9 373.43 62.39 382 77.27Z" fill="#EBEBEB"/>
<path d="M145.08 417.87L69.74 418C69.74 418 76.84 411.38 80 411.37C83.16 411.36 92.35 389.14 104.13 390.07C115.91 391 122.2 407.53 122.2 407.53C122.2 407.53 136.51 403 145.08 417.87Z" fill="#EBEBEB"/>
<path d="M133.6 99.36L69.1799 99.46C69.1799 99.46 72.3799 95.28 75.9099 94.75C75.9099 94.75 82.7399 74.3 94.2399 74.13C104.93 73.98 109.24 86.68 109.24 86.68C109.24 86.68 114.18 80.98 118.92 83.58C123.66 86.18 126.34 93.58 126.34 93.58C126.34 93.58 131.67 96.49 133.6 99.36Z" fill="#EBEBEB"/>
<path d="M455.25 382.86L390.83 382.96C390.83 382.96 394.03 378.78 397.56 378.26C397.56 378.26 404.39 357.8 415.89 357.64C426.58 357.48 430.89 370.19 430.89 370.19C430.89 370.19 435.83 364.48 440.57 367.08C445.31 369.68 448 377.14 448 377.14C448 377.14 453.32 380 455.25 382.86Z" fill="#EBEBEB"/>
<path d="M429.06 250C429.12 287.827 417.142 324.692 394.86 355.26C376.851 380.049 352.783 399.802 324.958 412.63C297.133 425.458 266.482 430.932 235.937 428.528C205.392 426.124 175.974 415.923 150.499 398.9C125.023 381.878 104.341 358.603 90.4315 331.302C76.522 304.002 69.8502 273.589 71.0542 242.973C72.2583 212.357 81.2979 182.562 97.3084 156.438C113.319 130.315 135.765 108.736 162.499 93.7665C189.233 78.797 219.36 70.9376 250 70.94C254.913 70.94 259.777 71.1367 264.59 71.53C292.33 73.7459 319.163 82.4425 342.93 96.92C369.232 112.883 390.975 135.355 406.062 162.169C421.149 188.983 429.07 219.233 429.06 250Z" fill="#455A64"/>
<g opacity="0.2">
<path d="M288.67 334.51C286.41 340.51 290.17 340.78 290.42 343.29C290.67 345.8 290.42 350.56 283.15 357.84C275.88 365.12 263.84 363.6 261.33 366.61C258.82 369.62 254.56 382.41 248.54 386.68C242.52 390.95 241.54 388.43 232.99 390.19C224.44 391.95 218 403 215.44 408.24C212.88 413.48 215.94 422.29 209.92 422.54C203.9 422.79 201.14 409.75 195.63 402.73C190.12 395.71 188.35 389.43 186.63 381.16C184.91 372.89 187.63 355.58 186.63 348.81C185.63 342.04 167.54 330 161 321.72C154.46 313.44 145.47 296.9 146 291.38C146.76 286.026 149.431 281.128 153.52 277.59C156.52 275.33 155.28 274.08 155.78 272.07C156.28 270.06 158.78 269.56 159.29 267.07C159.8 264.58 157.79 257.07 155.29 255.79C152.79 254.51 151.03 258.79 149.52 258.04C148.01 257.29 143.52 252.04 141.75 251.52C139.98 251 140.49 254.78 137.99 250.02C135.49 245.26 134.22 233.22 132.22 231.21C130.22 229.2 128.71 234.72 123.94 231.21C119.17 227.7 117.17 220.93 115.16 219.93C113.15 218.93 110.4 220.18 108.34 216.16C106.28 212.14 110.15 204.88 108.34 205.63C106.53 206.38 102.63 212.15 101.62 206.63C100.61 201.11 106.62 182.56 105.62 172.53C104.62 162.5 108.12 151.96 115.14 143.44C115.14 143.44 116.14 137.92 117.14 134.44C118.14 130.96 139.71 116.89 142.22 112.87C143.22 111.2 143.61 108.57 143.99 105.74C174.692 83.095 211.85 70.8973 250 70.94C254.913 70.94 259.777 71.1367 264.59 71.53L265.09 72.2C267.26 74.95 269.61 76.71 275.96 79.05C282.31 81.39 283.82 84.4 282.48 86.91C281.14 89.42 278.97 89.91 276.48 90.09C273.99 90.27 271.63 88.91 268.96 90.59C266.29 92.27 263.61 101.29 260.1 101.79C256.59 102.29 250.4 93.79 249.1 91.26C247.8 88.73 252.1 83.4 250.1 80.89C248.1 78.38 244.46 78.89 238.77 78.38C233.08 77.87 219.89 80.06 220.39 82.23C220.89 84.4 239.78 81.89 240.28 86.23C240.78 90.57 226.41 97.93 223.9 97.23C221.39 96.53 218.05 92.23 214.37 91.72C210.69 91.21 207.68 94.22 205.37 94.56C203.06 94.9 200.37 92.05 196.81 92.72C193.25 93.39 192.47 96.4 190.62 97.57C188.77 98.74 184.44 98.74 183.94 101.41C183.44 104.08 189.46 105.6 190.94 107.27C192.42 108.94 189.1 114.62 190.6 115.79C192.1 116.96 201.47 108.79 203.82 106.79C206.17 104.79 208.16 96.1 213.18 96.26C218.2 96.42 219.87 104.95 221.54 105.79C223.21 106.63 226.89 103.79 232.4 104.95C237.91 106.11 241.76 118.16 242.77 121.84C243.78 125.52 246.11 129.2 244.11 130.7C242.11 132.2 233.11 129.7 231.9 127.36C230.69 125.02 237.9 121.5 237.42 120.67C236.94 119.84 232.74 118.67 230.56 119.97C228.38 121.27 227.39 123.97 225.05 124.68C222.71 125.39 216.52 118.33 214.85 120.34C213.18 122.35 216.52 128.7 218.19 130.2C219.86 131.7 226.05 132.54 226.55 134.2C227.05 135.86 222.37 139.55 216.69 139.2C211.01 138.85 206.32 134.52 204.15 136.36C201.98 138.2 203.15 143.04 201.64 144.72C200.13 146.4 191.94 145.22 187.93 149.56C183.92 153.9 182 160.47 178 164.15C174 167.83 172.15 163.15 166.8 168.33C161.45 173.51 160.61 185.05 160.44 189.06C160.27 193.07 160.44 196.25 159.11 195.75C157.78 195.25 155.93 191.75 155.43 189.56C154.93 187.37 156.6 183.71 156.6 182.37C156.6 181.03 148.91 174.18 144.39 173.51C139.87 172.84 135.86 176.51 132.52 179.19C129.18 181.87 123.16 181.37 120.99 183.54C118.82 185.71 117.14 204.94 118.81 209.46C120.48 213.98 122.66 213.97 128.01 211.63C133.36 209.29 130.35 204.77 133.53 205.78C136.71 206.79 138.37 210.13 138.37 212.78C138.37 215.43 132.02 221.78 132.86 223.65C133.7 225.52 139.21 223.31 141.86 224.15C144.51 224.99 145.86 226.66 145.04 233.51C144.22 240.36 144.71 245.72 148.72 247.97C152.73 250.22 154.99 244.71 156.72 245.47C158.45 246.23 160.99 250.23 163.5 249.98C166.01 249.73 164.75 247.47 169.5 245.98C174.25 244.49 172.5 243.47 173.5 240.46C174.5 237.45 177.5 234.94 180.77 236.46C184.04 237.98 181.77 240.22 182.02 242.73C182.27 245.24 188.02 245.49 192.56 246.99C197.1 248.49 199.56 246.99 208.56 249.99C217.56 252.99 218.09 261.99 221.85 263.53C225.61 265.07 238.15 262.53 247.18 269.05C256.21 275.57 253.7 287.61 258.18 291.12C262.66 294.63 279.5 299.39 286.02 300.65C292.54 301.91 293.54 297.39 298.81 298.65C304.08 299.91 307.08 301.41 308.81 308.65C310.52 315.08 290.92 328.49 288.67 334.51Z" fill="black"/>
<path d="M153.91 206.28C154.08 207.7 158.26 208.28 163.27 211.13C168.28 213.98 170.13 222.33 172.8 222.13C175.47 221.93 174.64 218.13 175.65 217.13C176.66 216.13 178.32 213.95 175.65 211.78C172.98 209.61 170.37 204.92 165.48 204.25C160.59 203.58 159.76 201.58 157.59 201.75C157.032 201.754 156.482 201.881 155.979 202.122C155.476 202.364 155.033 202.713 154.681 203.146C154.329 203.58 154.078 204.085 153.944 204.627C153.811 205.169 153.799 205.733 153.91 206.28Z" fill="black"/>
<path d="M181.5 220.32C180.75 222.37 181.5 223.84 186.85 225.17C192.2 226.5 197.21 223.84 195.54 222.75C193.87 221.66 191.36 222.16 192.37 220.32C193.38 218.48 193.03 215.81 188.68 216.32C184.33 216.83 182.17 218.49 181.5 220.32Z" fill="black"/>
<path d="M200.22 220.89C198.4 221.16 197.38 224.34 199.22 226.34C201.06 228.34 201.06 228.01 203.22 226.34C205.38 224.67 208.74 223.84 207.9 222.17C207.06 220.5 202.06 220.63 200.22 220.89Z" fill="black"/>
<path d="M214.77 227.73C215.59 225.22 219.77 227.73 221.62 230.36C223.47 232.99 222.62 236.88 221.62 239.72C220.62 242.56 219.95 245.9 217.62 244.57C215.29 243.24 217.79 239.22 217.45 236.88C217.11 234.54 214.1 229.78 214.77 227.73Z" fill="black"/>
<path d="M286.83 88.25C285.95 90.35 290 91.09 292.34 92.43C294.68 93.77 296.52 94.6 297.86 92.43C299.2 90.26 297.36 87.74 295.52 87.24C293.68 86.74 287.66 86.24 286.83 88.25Z" fill="black"/>
<path d="M318.42 107.81C319.97 109.43 322.6 109.14 324.42 111.49C326.24 113.84 325.59 117.84 327.93 119.01C330.27 120.18 331.93 119.01 332.11 117.34C332.29 115.67 328.77 111.49 329.11 110.65C329.45 109.81 333.96 111.82 334.97 114.33C335.98 116.84 333.97 120.33 336.3 121.01C338.63 121.69 338.14 118.67 339.15 118.01C340.16 117.35 342.32 117.67 342.15 115.66C341.98 113.65 339.3 109.31 337.15 107.81C335 106.31 333.3 104.63 329.63 103.81C325.96 102.99 322.44 103.65 320.63 105.15C318.82 106.65 317.47 106.8 318.42 107.81Z" fill="black"/>
<path d="M390.76 139.32C390.657 139.997 390.325 140.618 389.82 141.08C386.3 143.58 382.12 134.89 377.28 133.22C372.44 131.55 370.28 125.36 369.28 126.7C368.28 128.04 368.61 129.88 367.11 132.05C365.61 134.22 363.43 133.72 362.43 137.9C361.43 142.08 367.11 149.77 365.77 152.28C364.43 154.79 362.77 153.95 360.08 153.79C357.39 153.63 357.91 155.96 354.41 154.95C350.91 153.94 353.9 149.6 348.41 144.42C342.92 139.24 341.05 138.24 342.23 135.89C343.41 133.54 341.73 130.21 344.23 129.89C346.73 129.57 348.75 133.23 350.42 134.23C352.09 135.23 354.26 132.23 354.42 129.55C354.58 126.87 348.57 123.2 346.42 121.12C344.27 119.04 344 111.48 344.84 110C345.68 108.52 348.19 109 348.84 105.32C349.23 103.16 345.84 99.55 342.92 96.94C361.268 108.098 377.471 122.451 390.76 139.32Z" fill="black"/>
<path d="M415.73 289.21C416.23 283.86 413.55 283.52 416.23 273.66C418.91 263.8 413.39 253.26 411.38 251.09C409.37 248.92 405.03 249.58 401.52 251.76C398.01 253.94 400.52 255.6 398.17 256.44C395.82 257.28 393.49 255.93 391.32 256.1C389.15 256.27 387.14 261.79 382.46 261.62C377.78 261.45 374.77 254.76 371.26 250C367.75 245.24 360.55 242.23 358.26 236.37C355.97 230.51 360.43 221.5 359.43 214.64C358.43 207.78 353.91 209.29 353.07 205.45C352.23 201.61 353.74 203.45 354.91 199.76C356.08 196.07 353.57 194.08 355.91 187.76C358.25 181.44 362.43 178.23 361.42 175.39C360.41 172.55 357.24 167.87 357.07 164.53C356.9 161.19 360.25 161.35 366.6 156.66C372.95 151.97 374.6 152.32 379.48 153.99C382.96 155.275 386.539 156.278 390.18 156.99C393.02 157.49 396.87 164.85 398.04 164.51C399.21 164.17 399.38 162.01 399.88 158.83C400.199 157.45 400.923 156.196 401.96 155.23C420.829 185.493 430.237 220.699 428.977 256.34C427.718 291.981 415.849 326.435 394.89 355.29C411.91 329.23 415.22 294.55 415.73 289.21Z" fill="black"/>
</g>
<path opacity="0.1" d="M388.72 363.22C369.618 386.63 344.903 404.826 316.876 416.114C288.85 427.402 258.422 431.415 228.427 427.779C198.433 424.142 169.845 412.976 145.327 395.318C120.81 377.661 101.158 354.086 88.2031 326.79C75.248 299.494 69.4103 269.364 71.2336 239.204C73.0569 209.045 82.4818 179.837 98.631 154.3C114.78 128.764 137.128 107.728 163.595 93.153C190.061 78.5776 219.786 70.9362 250 70.94C254.913 70.94 259.78 71.1367 264.6 71.53C265.93 71.63 267.26 71.75 268.6 71.9C243.288 74.6485 218.963 83.2497 197.55 97.0232C176.136 110.797 158.222 129.364 145.224 151.257C132.226 173.15 124.502 197.768 122.662 223.162C120.821 248.556 124.916 274.03 134.622 297.568C144.327 321.106 159.377 342.063 178.581 358.78C197.785 375.497 220.616 387.515 245.267 393.884C269.918 400.253 295.713 400.798 320.611 395.476C345.509 390.154 368.827 379.111 388.72 363.22Z" fill="black"/>
<path opacity="0.3" d="M429.06 250C429.124 287.828 417.146 324.694 394.86 355.26C378.065 378.353 356.014 397.117 330.53 410C352.715 397.297 371.961 380.043 387 359.37C408.083 330.349 420.022 295.694 421.288 259.846C422.555 223.998 413.092 188.587 394.11 158.15C390.662 152.613 386.91 147.271 382.87 142.15C369.52 125.179 353.24 110.734 334.8 99.5C310.89 84.9528 283.9 76.2187 256 74C251.17 73.61 246.26 73.41 241.33 73.41C226.756 73.4004 212.234 75.1532 198.08 78.63C214.915 73.5295 232.41 70.9383 250 70.94C254.913 70.94 259.78 71.1367 264.6 71.53C309.419 75.1827 351.221 95.5703 381.693 128.639C412.166 161.707 429.076 205.033 429.06 250Z" fill="white"/>
<path opacity="0.7" d="M286.33 208.34C314.796 205.755 342.887 200.023 370.09 191.25C370.09 191.25 366.01 188.4 361.49 189.25C361.49 189.25 352.72 171.56 337.81 174.86C323.94 177.86 318.3 191.35 318.31 191.4C318.32 191.45 311.84 186.84 305.62 190.32C299.4 193.8 295.88 201.65 295.88 201.65C295.88 201.65 288.87 205.27 286.33 208.34Z" fill="#DBDBDB"/>
<path d="M166.72 234.93C131.016 226.957 96.6239 213.961 64.57 196.33C64.57 196.26 64.51 191.28 78.11 197.2C78.11 197.13 90.47 180.92 110.11 191.68C122.32 198.33 128.69 213.68 128.68 213.68C128.67 213.68 138.04 206.25 145.61 210.4C153.18 214.55 157.7 226.86 157.7 226.87C157.7 226.88 165.52 231.74 166.72 234.93Z" fill="#EBEBEB"/>
<path d="M437.8 217.28C405.744 234.907 371.352 247.903 335.65 255.88C335.65 255.81 335.65 250.88 350.17 246.11C350.17 246.04 363.45 220.11 383.17 216.06C395.45 213.47 401.59 224.06 401.6 224.13C401.61 224.2 410.75 209.73 417.94 208.3C425.13 206.87 429.35 215.86 429.35 215.88C429.35 215.9 436.71 215 437.8 217.28Z" fill="#EBEBEB"/>
<path d="M264.64 137.73C240.189 138.573 215.714 137.103 191.54 133.34C191.54 133.34 198.4 129.51 201.45 129.89C204.5 130.27 213.45 115.07 224.87 116.54C236.29 118.01 242.4 130.18 242.4 130.21C242.4 130.24 256.33 127.14 264.64 137.73Z" fill="#EBEBEB"/>
<path d="M229.76 418C205.277 416.634 180.978 412.951 157.19 407C157.19 407 163.95 403.79 166.98 404.44C170.01 405.09 178.8 390.7 190.16 393.2C201.52 395.7 207.58 408.42 207.58 408.45C207.58 408.48 221.45 406.65 229.76 418Z" fill="#EBEBEB"/>
<path opacity="0.7" d="M156.22 323.69C135.691 318.502 115.624 311.636 96.22 303.16C98.0811 302.097 100.282 301.796 102.36 302.32C102.36 302.32 108.62 289.97 119.29 293.75C129.22 297.21 133.29 307.75 133.29 307.75C134.705 306.986 136.304 306.628 137.91 306.717C139.517 306.805 141.067 307.336 142.39 308.25C146.85 311.48 149.39 317.64 149.39 317.64C149.39 317.64 154.38 321.13 156.22 323.69Z" fill="#DBDBDB"/>
<path opacity="0.7" d="M301 391.86C329.406 388.181 357.317 381.363 384.22 371.53C384.22 371.53 380.22 368.84 375.7 369.83C375.7 369.83 367.02 352.48 352.22 356.36C338.44 359.88 332.83 373.6 332.84 373.65C332.85 373.7 326.41 369.34 320.22 373.06C314.03 376.78 310.52 384.76 310.52 384.76C310.52 384.76 303.51 388.68 301 391.86Z" fill="#DBDBDB"/>
<path d="M411.1 298.37C410.84 295.78 409.1 293.21 405.93 293.21C402.76 293.21 401.02 295.78 400.76 298.37C400.36 302.37 403.06 305.98 405.93 309.28C408.8 306 411.5 302.36 411.1 298.37ZM405.93 301.24C405.37 301.24 404.823 301.074 404.358 300.763C403.892 300.452 403.53 300.01 403.315 299.493C403.101 298.976 403.045 298.407 403.154 297.858C403.264 297.309 403.533 296.805 403.929 296.409C404.325 296.013 404.829 295.744 405.378 295.634C405.927 295.525 406.496 295.581 407.013 295.795C407.53 296.01 407.972 296.372 408.283 296.838C408.594 297.303 408.76 297.85 408.76 298.41C408.757 299.16 408.458 299.878 407.928 300.408C407.398 300.938 406.68 301.237 405.93 301.24Z" fill="#8E1979"/>
<path d="M242.57 370C242.23 366.53 239.84 363.08 235.64 363.08C231.44 363.08 229.06 366.53 228.72 370C228.19 375.35 231.8 380.19 235.64 384.61C239.5 380.17 243.1 375.33 242.57 370ZM235.64 373.84C234.891 373.838 234.159 373.614 233.537 373.196C232.915 372.779 232.431 372.186 232.146 371.493C231.86 370.801 231.787 370.039 231.934 369.304C232.081 368.57 232.443 367.896 232.974 367.367C233.504 366.837 234.179 366.478 234.914 366.332C235.649 366.187 236.411 366.262 237.103 366.549C237.795 366.837 238.386 367.322 238.802 367.945C239.218 368.568 239.44 369.301 239.44 370.05C239.435 371.053 239.032 372.014 238.319 372.721C237.607 373.427 236.643 373.823 235.64 373.82V373.84Z" fill="#8E1979"/>
<path d="M382.45 166.76C382.11 163.3 379.72 159.85 375.52 159.85C371.32 159.85 368.94 163.3 368.6 166.76C368.07 172.11 371.68 176.96 375.52 181.38C379.38 177 383 172.11 382.45 166.76ZM375.52 170.61C374.768 170.61 374.033 170.387 373.408 169.969C372.783 169.551 372.296 168.957 372.008 168.262C371.721 167.567 371.646 166.802 371.794 166.065C371.941 165.328 372.304 164.65 372.836 164.119C373.369 163.588 374.047 163.227 374.785 163.082C375.523 162.936 376.287 163.013 376.981 163.302C377.675 163.591 378.268 164.08 378.684 164.706C379.101 165.332 379.322 166.068 379.32 166.82C379.32 167.319 379.222 167.812 379.03 168.273C378.839 168.733 378.559 169.151 378.206 169.503C377.853 169.856 377.434 170.134 376.973 170.324C376.512 170.514 376.018 170.611 375.52 170.61Z" fill="#8E1979"/>
<path d="M283.93 309.91C283.67 307.32 281.93 304.74 278.76 304.74C275.59 304.74 273.84 307.32 273.59 309.91C273.19 313.91 275.88 317.52 278.76 320.82C281.63 317.52 284.33 313.9 283.93 309.91ZM278.76 312.78C278.197 312.782 277.647 312.617 277.178 312.306C276.71 311.994 276.344 311.551 276.128 311.031C275.912 310.512 275.855 309.94 275.964 309.388C276.073 308.837 276.344 308.33 276.742 307.932C277.14 307.534 277.647 307.263 278.198 307.154C278.75 307.045 279.322 307.102 279.841 307.318C280.361 307.534 280.804 307.9 281.115 308.368C281.427 308.837 281.592 309.387 281.59 309.95C281.587 310.7 281.288 311.418 280.758 311.948C280.228 312.478 279.51 312.777 278.76 312.78Z" fill="#8E1979"/>
<path d="M176.92 259.09C176.66 256.5 174.92 253.93 171.75 253.93C168.58 253.93 166.84 256.5 166.58 259.09C166.18 263.09 168.88 266.7 171.75 270C174.62 266.7 177.32 263.08 176.92 259.09ZM171.75 262C171.191 261.998 170.644 261.83 170.18 261.518C169.716 261.206 169.355 260.763 169.143 260.246C168.93 259.729 168.875 259.16 168.986 258.612C169.096 258.063 169.366 257.56 169.762 257.165C170.159 256.771 170.663 256.502 171.212 256.394C171.76 256.285 172.329 256.342 172.845 256.556C173.362 256.771 173.803 257.134 174.114 257.599C174.424 258.064 174.59 258.611 174.59 259.17C174.591 259.543 174.519 259.912 174.376 260.257C174.234 260.601 174.025 260.914 173.76 261.178C173.496 261.441 173.183 261.649 172.838 261.79C172.492 261.931 172.123 262.003 171.75 262Z" fill="#8E1979"/>
<path d="M117.79 169.14C117.53 166.55 115.79 163.98 112.62 163.98C109.45 163.98 107.71 166.55 107.45 169.14C107.05 173.14 109.75 176.75 112.62 180.05C115.49 176.75 118.19 173.13 117.79 169.14ZM112.62 172C112.06 172 111.513 171.834 111.048 171.523C110.582 171.212 110.22 170.77 110.005 170.253C109.791 169.736 109.735 169.167 109.844 168.618C109.954 168.069 110.223 167.565 110.619 167.169C111.015 166.773 111.519 166.504 112.068 166.394C112.617 166.285 113.186 166.341 113.703 166.555C114.22 166.77 114.662 167.132 114.973 167.598C115.284 168.063 115.45 168.61 115.45 169.17C115.45 169.542 115.377 169.91 115.235 170.253C115.092 170.596 114.884 170.908 114.621 171.171C114.358 171.434 114.046 171.642 113.703 171.785C113.36 171.927 112.992 172 112.62 172Z" fill="#8E1979"/>
<path d="M188.18 122.21C187.84 118.75 185.45 115.3 181.25 115.3C177.05 115.3 174.67 118.75 174.33 122.21C173.8 127.56 177.41 132.4 181.25 136.82C185.1 132.4 188.71 127.56 188.18 122.21ZM181.25 126.06C180.498 126.06 179.764 125.837 179.139 125.42C178.514 125.002 178.027 124.409 177.739 123.714C177.452 123.02 177.376 122.256 177.523 121.519C177.67 120.782 178.031 120.104 178.563 119.573C179.094 119.042 179.771 118.68 180.509 118.533C181.246 118.386 182.01 118.462 182.704 118.749C183.398 119.037 183.992 119.524 184.41 120.149C184.827 120.774 185.05 121.508 185.05 122.26C185.05 122.759 184.952 123.253 184.761 123.714C184.57 124.175 184.29 124.594 183.937 124.947C183.584 125.3 183.165 125.58 182.704 125.771C182.243 125.962 181.749 126.06 181.25 126.06Z" fill="#8E1979"/>
<g opacity="0.6">
<path d="M243.5 342.24C243.5 342.24 71.2 379.75 54 350.46C46 336.8 83.72 316.51 83.72 316.51C83.72 316.51 58.62 334.39 70.07 341.43C91.42 354.54 209.28 324.77 209.28 324.77L243.5 342.24Z" fill="#EBEBEB"/>
<path d="M141 363.21L166.76 359.44C171.05 358.79 175.34 358.23 179.62 357.54C183.9 356.85 188.18 356.25 192.46 355.54C196.74 354.83 201.01 354.19 205.27 353.44C209.53 352.69 213.78 351.92 218.06 351.22C226.57 349.62 235.06 347.9 243.55 346.06C235.374 349.042 227.025 351.53 218.55 353.51C214.31 354.51 210.05 355.41 205.78 356.23C201.51 357.05 197.22 357.77 192.93 358.5C188.64 359.23 184.33 359.78 180.01 360.31C177.86 360.57 175.7 360.83 173.54 361.06C171.38 361.29 169.21 361.54 167.05 361.72C158.33 362.56 149.65 363.15 141 363.21Z" fill="#EBEBEB"/>
<path d="M75.93 328.08C75.2665 329.045 74.7664 330.112 74.45 331.24C74.3158 331.773 74.2487 332.32 74.25 332.87C74.2719 333.377 74.3979 333.874 74.62 334.33C75.0879 335.238 75.8392 335.968 76.76 336.41C77.7105 336.914 78.7176 337.304 79.76 337.57C81.9929 338.092 84.2692 338.407 86.56 338.51C88.87 338.69 91.22 338.72 93.56 338.7C95.9 338.68 98.26 338.64 100.62 338.55C102.98 338.46 105.34 338.35 107.7 338.25C112.44 338.05 117.19 337.74 121.99 337.72C117.393 338.974 112.72 339.929 108 340.58C106.82 340.77 105.63 340.92 104.44 341.03C103.25 341.14 102.06 341.3 100.86 341.38C98.47 341.57 96.06 341.66 93.65 341.7C88.83 341.63 83.93 341.44 79.15 339.8C77.9319 339.377 76.7777 338.788 75.72 338.05C74.572 337.275 73.7111 336.143 73.27 334.83C72.9236 333.527 73.0807 332.142 73.71 330.95C74.2494 329.854 75.0045 328.878 75.93 328.08Z" fill="#EBEBEB"/>
<path d="M217.23 192.16C217.23 192.16 389.82 156 393.55 122.29C395.29 106.55 352.55 103.43 352.55 103.43C352.55 103.43 381.31 108.64 375.19 120.6C362 146.4 217.23 192.16 217.23 192.16Z" fill="#EBEBEB"/>
<path d="M319.4 169.43C311.4 172.92 303.27 175.93 295.04 178.73C292.99 179.45 290.92 180.12 288.85 180.78C286.78 181.44 284.71 182.1 282.63 182.78C278.47 184.06 274.28 185.21 270.1 186.4C265.92 187.59 261.68 188.61 257.44 189.58C253.2 190.55 248.94 191.47 244.68 192.31C236.13 193.97 227.488 195.109 218.8 195.72C227.32 193.93 235.8 192.04 244.18 190.02C248.37 188.91 252.59 188.02 256.76 186.82C260.93 185.62 265.13 184.63 269.31 183.51C273.49 182.39 277.67 181.24 281.83 180.06C285.99 178.88 290.17 177.7 294.34 176.55L319.4 169.43Z" fill="#EBEBEB"/>
<path d="M364.41 110.8C365.613 111.205 366.662 111.974 367.41 113C367.806 113.547 368.094 114.165 368.26 114.82C368.405 115.476 368.449 116.151 368.39 116.82C368.236 118.146 367.81 119.426 367.14 120.58C366.519 121.708 365.786 122.77 364.95 123.75C361.588 127.452 357.708 130.649 353.43 133.24C351.33 134.55 349.21 135.79 347.04 136.95C345.96 137.53 344.86 138.08 343.76 138.62C342.66 139.16 341.56 139.72 340.43 140.2C335.979 142.254 331.399 144.017 326.72 145.48C330.89 142.88 335.16 140.55 339.36 138.12C341.46 136.89 343.59 135.74 345.65 134.47C347.71 133.2 349.81 132.02 351.82 130.71C353.83 129.4 355.82 128.11 357.82 126.71C359.742 125.335 361.563 123.824 363.27 122.19C364.087 121.376 364.839 120.5 365.52 119.57C366.201 118.676 366.701 117.656 366.99 116.57C367.122 116.044 367.179 115.502 367.16 114.96C367.107 114.411 366.966 113.874 366.74 113.37C366.212 112.317 365.406 111.428 364.41 110.8Z" fill="#EBEBEB"/>
</g>
<path d="M269.87 350.46C268.57 348.96 250.46 336.31 249.1 335.36L252.19 334.83C252.19 334.83 268.75 348.9 269.87 350.46Z" fill="#8E1979"/>
<path opacity="0.5" d="M269.87 350.46C268.57 348.96 250.46 336.31 249.1 335.36L252.19 334.83C252.19 334.83 268.75 348.9 269.87 350.46Z" fill="white"/>
<path d="M269.93 350.57C269.93 350.57 269.93 350.57 269.93 350.63C269.79 350.95 268.55 351.23 267.16 351.42H267.11C265.829 351.657 264.519 351.684 263.23 351.5C262.84 351.23 249.77 344.69 241.77 340.69L241.45 340.54H241.39L240.26 339.97L236.96 338.33L235.68 337.69L249.13 335.39C249.9 335.92 256.01 340.19 261.42 344.08L261.98 344.48C262.48 344.84 262.98 345.2 263.46 345.54C265.691 347.073 267.841 348.722 269.9 350.48C269.9 350.48 269.9 350.53 269.9 350.55L269.93 350.57Z" fill="#8E1979"/>
<g opacity="0.1">
<path d="M269.93 350.57C269.93 350.57 269.93 350.57 269.93 350.63C269.79 350.95 268.55 351.23 267.16 351.42H267.11C265.83 351.657 264.519 351.684 263.23 351.5C262.83 351.23 249.42 344.5 241.45 340.5C242.76 341.14 259.96 349.41 263.45 345.5C265.681 347.033 267.831 348.682 269.89 350.44C269.89 350.44 269.89 350.49 269.89 350.51L269.93 350.57Z" fill="black"/>
</g>
<path d="M447.1 365.33C447.1 367.13 437.19 367.71 435.84 367.33C434.49 366.95 326.49 324.45 326.49 324.45L366.18 308.74L367.33 309.53L367.83 309.88C375.15 314.94 397 330.09 416.08 343.42L417.21 344.21L418.71 345.21C431.94 354.51 443.41 362.58 447.1 365.33Z" fill="#8E1979"/>
<path d="M447.1 365.33C437.44 358.12 374.43 314.46 366.18 308.75L371.18 306.75C371.18 306.75 444.58 362.58 446.8 364.8C446.964 364.932 447.072 365.121 447.1 365.33Z" fill="#8E1979"/>
<path opacity="0.5" d="M447.1 365.33C437.44 358.12 374.43 314.46 366.18 308.75L371.18 306.75C371.18 306.75 444.58 362.58 446.8 364.8C446.964 364.932 447.072 365.121 447.1 365.33Z" fill="white"/>
<g opacity="0.5">
<path opacity="0.1" d="M447.1 365.33C447.1 367.13 437.19 367.71 435.84 367.33C434.49 366.95 326.49 324.45 326.49 324.45L366.18 308.74C366.18 308.74 356.37 319.96 379.66 337.23C395.53 349 412.43 351.44 418.66 345.23C431.94 354.51 443.41 362.58 447.1 365.33Z" fill="black"/>
</g>
<path d="M357.15 338.39C354.08 339.88 350.75 341.04 350.5 337.96C350.41 336.7 351.39 335.35 356.32 332.96C357.47 332.4 360.32 331.16 361.13 333.72C361.94 336.28 358.3 337.82 357.15 338.39Z" fill="#8E1979"/>
<path opacity="0.1" d="M357.15 338.39C354.08 339.88 350.75 341.04 350.5 337.96C350.41 336.7 351.39 335.35 356.32 332.96C357.47 332.4 360.32 331.16 361.13 333.72C361.94 336.28 358.3 337.82 357.15 338.39Z" fill="black"/>
<path d="M382.18 348.63C379.11 350.12 375.77 351.29 375.53 348.21C375.43 346.94 376.41 345.59 381.35 343.21C382.5 342.65 385.35 341.42 386.16 343.98C386.97 346.54 383.33 348.07 382.18 348.63Z" fill="#8E1979"/>
<path opacity="0.1" d="M382.18 348.63C379.11 350.12 375.77 351.29 375.53 348.21C375.43 346.94 376.41 345.59 381.35 343.21C382.5 342.65 385.35 341.42 386.16 343.98C386.97 346.54 383.33 348.07 382.18 348.63Z" fill="black"/>
<path d="M407.2 358.87C404.14 360.36 400.8 361.53 400.56 358.45C400.46 357.19 401.44 355.84 406.37 353.45C407.53 352.9 410.37 351.66 411.19 354.22C412.01 356.78 408.36 358.31 407.2 358.87Z" fill="#8E1979"/>
<path opacity="0.1" d="M407.2 358.87C404.14 360.36 400.8 361.53 400.56 358.45C400.46 357.19 401.44 355.84 406.37 353.45C407.53 352.9 410.37 351.66 411.19 354.22C412.01 356.78 408.36 358.31 407.2 358.87Z" fill="black"/>
<path d="M399 332C396 337.37 389.14 339.3 384.81 341C373.3 345.6 364.96 348.18 360.81 337.73C360.318 336.523 360.007 335.249 359.89 333.95C359.21 326.07 367.38 322.13 371.52 319.95C376.52 317.31 380.06 315.61 382.7 314.5C387 312.68 388.92 312.5 390.89 312.39C393.22 312.31 398.47 312.9 400.2 322.54C400.948 325.735 400.522 329.093 399 332Z" fill="#8E1979"/>
<path d="M399.16 324.47C399.16 330.34 395.49 335.1 390.96 335.1C386.43 335.1 382.76 330.34 382.76 324.47C382.76 318.6 386.43 313.84 390.96 313.84C395.49 313.84 399.16 318.6 399.16 324.47Z" fill="#263238"/>
<path d="M398.2 324.47C398.2 329.66 394.96 333.86 390.96 333.86C386.96 333.86 383.71 329.66 383.71 324.47C383.71 319.28 386.96 315.07 390.96 315.07C394.96 315.07 398.2 319.28 398.2 324.47Z" fill="#455A64"/>
<path d="M227.3 321.65L225.4 322.35L221.12 323.9L206.32 317.51C192 311.36 175 304.12 171.75 303L172.16 303.12L172.54 303.24L173.04 303.4L173.32 303.5L174.45 303.86L175.61 304.24L178.86 305.31L179.98 305.68L180.98 306.03L181.55 306.22L183.32 306.81L184.49 307.2L199.72 312.32L201.16 312.81L206.83 314.72L216.61 318.03L217.99 318.5C219.57 319.03 220.99 319.5 222.25 319.94L223.34 320.31L223.84 320.48L224.1 320.56C226.14 321.27 227.3 321.65 227.3 321.65Z" fill="#8E1979"/>
<path opacity="0.5" d="M227.3 321.65L225.4 322.35L221.12 323.9L206.32 317.51C192 311.36 175 304.12 171.75 303L172.16 303.12L172.54 303.24L173.04 303.4L173.32 303.5L174.45 303.86L175.61 304.24L178.86 305.31L179.98 305.68L180.98 306.03L181.55 306.22L183.32 306.81L184.49 307.2L199.72 312.32L201.16 312.81L206.83 314.72L216.61 318.03L217.99 318.5C219.57 319.03 220.99 319.5 222.25 319.94L223.34 320.31L223.84 320.48L224.1 320.56C226.14 321.27 227.3 321.65 227.3 321.65Z" fill="white"/>
<path d="M221.12 323.9L209.66 328.08C209.66 328.08 184.06 316.2 168.79 308.75L168.63 308.68L168.42 308.58L164 306.42C160.05 304.42 157.55 303.1 157.65 302.92C158.07 302.07 167.57 301.86 171.37 302.92H171.48L171.72 303C174.88 304.07 190.83 310.85 204.84 316.87L205.16 317L206.29 317.49L221.12 323.9Z" fill="#8E1979"/>
<g opacity="0.1">
<path d="M221.12 323.9L209.66 328.08C209.66 328.08 184.06 316.2 168.79 308.75C171.32 309.83 197.23 321.24 203.61 319.65C204.203 319.545 204.761 319.294 205.234 318.921C205.707 318.547 206.08 318.063 206.32 317.51L221.12 323.9Z" fill="black"/>
</g>
<path d="M250.61 307.56L222.8 320.94C222.8 320.94 223.08 297.09 223.3 279.94C223.3 279.35 223.3 278.77 223.3 278.2C223.3 277.63 223.3 277.26 223.3 276.8C223.37 270.93 223.44 266.2 223.47 264.05C223.57 257.15 224.31 255.75 226.14 256.87C227.97 257.99 236.09 265.06 238.53 268.21C240.53 270.79 244.97 286.45 247.86 297.21C247.86 297.31 247.86 297.39 247.92 297.48C248.09 298.11 248.26 298.72 248.41 299.3C249.74 304.14 250.61 307.56 250.61 307.56Z" fill="#8E1979"/>
<g opacity="0.1">
<path d="M250.61 307.56L222.8 320.94C222.8 320.94 223.08 297.09 223.3 279.94C227.39 289.08 235.48 301.56 248.45 299.3C249.74 304.14 250.61 307.56 250.61 307.56Z" fill="black"/>
</g>
<path d="M203.37 335.52C200.51 328.36 212.66 321.86 226.46 315.67C240.26 309.48 376.28 249.49 396 244.14C415.72 238.79 438.68 246.14 442.56 257.37C448.38 274.27 423.85 288.43 335.74 324.96C324.19 329.75 272.55 342.15 243.51 342.24C212.45 342.34 204.78 339 203.37 335.52Z" fill="#8E1979"/>
<path opacity="0.5" d="M203.37 335.52C200.51 328.36 212.66 321.86 226.46 315.67C240.26 309.48 376.28 249.49 396 244.14C415.72 238.79 438.68 246.14 442.56 257.37C448.38 274.27 423.85 288.43 335.74 324.96C324.19 329.75 272.55 342.15 243.51 342.24C212.45 342.34 204.78 339 203.37 335.52Z" fill="white"/>
<path opacity="0.1" d="M335.73 325C324.18 329.79 272.54 342.18 243.5 342.28C212.45 342.38 204.78 339.08 203.37 335.56C201.87 331.82 204.48 328.25 209.29 324.81C209.258 325.535 209.384 326.259 209.66 326.93C210.95 330.13 217.91 333.12 246.08 333.03C272.43 332.94 310.33 311.6 320.8 307.26C400.75 274.07 432 271.31 426.69 256C424.39 249.32 414.69 244.17 403.26 242.76C420.98 240.64 439.14 247.49 442.55 257.39C448.37 274.27 423.84 288.43 335.73 325Z" fill="black"/>
<path d="M246.49 311.92L249.61 310.56V315.16L246.49 316.51V311.92Z" fill="#455A64"/>
<path d="M252.19 309.45L255.53 308V312.6L252.19 314.04V309.45Z" fill="#455A64"/>
<path d="M258.1 306.89L261.44 305.44V310.04L258.1 311.48V306.89Z" fill="#455A64"/>
<path d="M264.02 304.33L267.35 302.88V307.48L264.02 308.92V304.33Z" fill="#455A64"/>
<path d="M269.93 301.77L273.27 300.32V304.92L269.93 306.36V301.77Z" fill="#455A64"/>
<path d="M275.85 299.21L279.18 297.76V302.36L275.85 303.81V299.21Z" fill="#455A64"/>
<path d="M281.76 296.65L285.1 295.2V299.8L281.76 301.25V296.65Z" fill="#455A64"/>
<path d="M287.67 294.09L291.01 292.64V297.24L287.67 298.69V294.09Z" fill="#455A64"/>
<path d="M293.59 291.53L296.92 290.08V294.68L293.59 296.13V291.53Z" fill="#455A64"/>
<path d="M299.5 288.97L302.84 287.52V292.12L299.5 293.56V288.97Z" fill="#455A64"/>
<path d="M305.42 286.41L308.75 284.96V289.56L305.42 291V286.41Z" fill="#455A64"/>
<path d="M311.33 283.85L314.67 282.4V287L311.33 288.44V283.85Z" fill="#455A64"/>
<path d="M317.24 281.29L320.58 279.85V284.44L317.24 285.88V281.29Z" fill="#455A64"/>
<path d="M323.16 278.73L326.49 277.29V281.88L323.16 283.32V278.73Z" fill="#455A64"/>
<path d="M329.07 276.17L332.41 274.73V279.32L329.07 280.76V276.17Z" fill="#455A64"/>
<path d="M334.98 273.61L338.32 272.17V276.76L334.98 278.21V273.61Z" fill="#455A64"/>
<path d="M340.9 271.05L344.24 269.61V274.2L340.9 275.65V271.05Z" fill="#455A64"/>
<path d="M346.81 268.49L350.15 267.05V271.64L346.81 273.09V268.49Z" fill="#455A64"/>
<path d="M352.73 265.93L356.06 264.49V269.08L352.73 270.53V265.93Z" fill="#455A64"/>
<path d="M358.64 263.37L361.98 261.93V266.52L358.64 267.97V263.37Z" fill="#455A64"/>
<path d="M364.55 260.81L367.89 259.37V263.96L364.55 265.41V260.81Z" fill="#455A64"/>
<path d="M373.81 256.81V261.4L370.47 262.85V258.25L373.81 256.81Z" fill="#455A64"/>
<path d="M379.72 254.25V258.84L376.38 260.29V255.69L379.72 254.25Z" fill="#455A64"/>
<path d="M385.63 251.69V256.28L382.3 257.73V253.13L385.63 251.69Z" fill="#455A64"/>
<path d="M391.55 249.13V253.72L388.21 255.17V250.57L391.55 249.13Z" fill="#455A64"/>
<path d="M407 247.25C408.836 245.853 410.95 244.868 413.2 244.36V247.36C411.22 247.34 409.18 247.29 407 247.25Z" fill="#455A64"/>
<path d="M420.47 243.63V247.85C418.91 247.71 417.36 247.62 415.79 247.54V243.85C417.339 243.626 418.907 243.553 420.47 243.63Z" fill="#455A64"/>
<path d="M435.34 249.59C434.03 249.59 432.83 249.33 431.63 249.19C430.43 249.05 429.26 248.83 428.09 248.72C426.39 248.46 424.71 248.28 423.09 248.12V243.9C425.125 244.177 427.115 244.718 429.01 245.51C430.186 245.99 431.317 246.572 432.39 247.25C432.937 247.577 433.459 247.944 433.95 248.35C434.4 248.75 434.89 249.15 435.34 249.59Z" fill="#455A64"/>
<path d="M329.07 287L289.87 305.86C289.87 305.86 227.57 272.46 182.87 248.06L182.77 248C158.91 235 140.69 224.84 140.99 224.45C141.74 223.45 153.74 223.56 158.49 224.21C158.949 224.254 159.404 224.334 159.85 224.45C161.85 225 232.36 251.11 281.72 269.45L329.07 287Z" fill="#8E1979"/>
<g opacity="0.1">
<path d="M329.07 287L289.87 305.86C289.87 305.86 227.57 272.46 182.87 248.06C186.37 249.82 266.52 290.21 276.99 284.15C280.94 281.86 281.99 275.95 281.7 269.42L329.07 287Z" fill="black"/>
</g>
<path d="M334.79 284.45L323.15 290.05C293.37 277.57 169.5 228.6 159.15 224.49L158.83 224.36L158.57 224.28H158.48C158.939 224.324 159.394 224.404 159.84 224.52C162.92 225.34 334.79 284.45 334.79 284.45Z" fill="#8E1979"/>
<path opacity="0.5" d="M334.79 284.45L323.15 290.05C293.37 277.57 169.5 228.6 159.15 224.49L158.83 224.36L158.57 224.28H158.48C158.939 224.324 159.394 224.404 159.84 224.52C162.92 225.34 334.79 284.45 334.79 284.45Z" fill="white"/>
<path d="M250.84 285.36C247.01 287.22 242.84 288.68 242.54 284.83C242.42 283.25 243.64 281.56 249.81 278.6C251.25 277.9 254.81 276.35 255.81 279.6C256.81 282.85 252.29 284.66 250.84 285.36Z" fill="#8E1979"/>
<path opacity="0.1" d="M250.84 285.36C247.01 287.22 242.84 288.68 242.54 284.83C242.42 283.25 243.64 281.56 249.81 278.6C251.25 277.9 254.81 276.35 255.81 279.6C256.81 282.85 252.29 284.66 250.84 285.36Z" fill="black"/>
<path d="M217.67 268.6C213.84 270.46 209.67 271.92 209.37 268.07C209.25 266.49 210.47 264.81 216.64 261.84C218.08 261.14 221.64 259.6 222.64 262.84C223.64 266.08 219.12 267.9 217.67 268.6Z" fill="#8E1979"/>
<path opacity="0.1" d="M217.67 268.6C213.84 270.46 209.67 271.92 209.37 268.07C209.25 266.49 210.47 264.81 216.64 261.84C218.08 261.14 221.64 259.6 222.64 262.84C223.64 266.08 219.12 267.9 217.67 268.6Z" fill="black"/>
<path d="M184.4 251.64C180.83 253.38 176.94 254.74 176.66 251.15C176.55 249.68 177.66 248.15 183.43 245.35C184.78 244.7 188.07 243.26 189.03 246.24C189.99 249.22 185.74 251 184.4 251.64Z" fill="#8E1979"/>
<path opacity="0.1" d="M184.4 251.64C180.83 253.38 176.94 254.74 176.66 251.15C176.55 249.68 177.66 248.15 183.43 245.35C184.78 244.7 188.07 243.26 189.03 246.24C189.99 249.22 185.74 251 184.4 251.64Z" fill="black"/>
<path d="M300.33 281.56C297.33 286.93 290.47 288.86 286.14 290.56C274.63 295.16 266.29 297.75 262.14 287.29C261.647 286.083 261.337 284.809 261.22 283.51C260.54 275.63 268.71 271.69 272.85 269.51C277.85 266.88 281.39 265.17 284.03 264.06C288.33 262.25 290.25 262.06 292.22 261.95C294.55 261.87 299.8 262.46 301.53 272.1C302.278 275.295 301.852 278.653 300.33 281.56Z" fill="#8E1979"/>
<path d="M292.27 284.7C296.799 284.7 300.47 279.941 300.47 274.07C300.47 268.199 296.799 263.44 292.27 263.44C287.741 263.44 284.07 268.199 284.07 274.07C284.07 279.941 287.741 284.7 292.27 284.7Z" fill="#263238"/>
<path d="M299.51 274.07C299.51 279.26 296.27 283.46 292.27 283.46C288.27 283.46 285.02 279.26 285.02 274.07C285.02 268.88 288.27 264.68 292.27 264.68C296.27 264.68 299.51 268.88 299.51 274.07Z" fill="#455A64"/>
</svg>
