<svg width="906" height="419" viewBox="0 0 906 419" fill="none" xmlns="http://www.w3.org/2000/svg">
<g clip-path="url(#clip0_1_2)">
<path d="M297.198 413.509L197.973 256.259L207.073 250.509L216.173 256.259L113.785 418.521H0.410156L148.185 194.134L157.185 200.059L148.235 206.046L11.7352 2.047H125.285L216.185 146.672L207.073 152.409L197.96 146.672L288.86 2.047H401.385L270.798 205.859L261.735 200.059L270.823 194.296L412.748 418.521H300.36L297.198 413.509ZM315.398 402.009L306.298 407.759V396.996H393.198V407.759L384.098 413.521L248.973 200.021L372.635 7.009L381.698 12.809V23.584H294.81V12.809L303.923 18.547L207.073 172.634L110.223 18.547L119.335 12.809V23.584H31.8852V12.809L40.8352 6.83401L170.098 200.009L29.3852 413.684L20.3977 407.759V396.996H107.848V407.759L98.748 402.009L207.073 230.334L315.398 402.009Z" fill="black"/>
<path d="M306.297 407.759L207.072 250.509L107.847 407.759H20.3975L157.185 200.059L31.885 12.809H119.335L207.072 152.409L294.81 12.809H381.697L261.735 200.059L393.197 407.759H306.297Z" fill="black"/>
<path d="M482.753 55.633V145.683H474.816V137.746H631.641V200.696H474.816V192.771H482.753V307.458H405.966V0.620972H636.391V63.571H474.816V55.633H482.753ZM466.891 47.708H628.466V55.633H620.541V8.55798H628.466V16.483H413.891V8.55798H421.828V299.533H413.891V291.608H474.816V299.533H466.891V184.833H623.716V192.771H615.791V145.683H623.716V153.608H466.891V47.708Z" fill="black"/>
<path d="M811.508 55.633V307.458H734.733V55.633H742.658V63.571H640.771V0.620972H905.683V63.571H803.583V55.633H811.508ZM795.646 47.708H897.758V55.633H889.821V8.55798H897.758V16.483H648.696V8.55798H656.621V55.633H648.696V47.708H750.596V299.533H742.658V291.608H803.583V299.533H795.646V47.708Z" fill="black"/>
<path d="M474.816 55.633V145.683H623.716V192.771H474.816V299.533H413.891V8.55798H628.466V55.633H474.816Z" fill="black"/>
<path d="M803.584 55.633V299.533H742.659V55.633H648.696V8.55798H897.759V55.633H803.584Z" fill="black"/>
<path d="M434.293 417.029V359.416H446.355V407.704H477.268V417.029H434.293Z" fill="black"/>
<path d="M541.471 387.954C541.471 393.954 540.283 399.229 537.908 403.779C535.533 408.329 532.146 411.816 527.733 414.229C523.308 416.641 518.158 417.841 512.271 417.841C503.221 417.841 496.133 415.179 490.983 409.854C485.846 404.529 483.283 397.229 483.283 387.954C483.283 378.716 485.846 371.504 490.971 366.329C496.096 361.141 503.221 358.554 512.358 358.554C521.483 358.554 528.621 361.166 533.758 366.404C538.896 371.641 541.471 378.829 541.471 387.954ZM529.158 387.954C529.158 381.741 527.683 376.866 524.746 373.341C521.796 369.804 517.671 368.041 512.358 368.041C506.958 368.041 502.783 369.791 499.846 373.291C496.896 376.804 495.421 381.691 495.421 387.954C495.421 394.279 496.933 399.266 499.946 402.904C502.958 406.541 507.071 408.354 512.271 408.354C517.671 408.354 521.833 406.591 524.758 403.041C527.696 399.504 529.158 394.466 529.158 387.954Z" fill="black"/>
<path d="M577.946 408.404C581.071 408.404 584.121 407.941 587.058 407.029C590.008 406.116 592.283 404.954 593.883 403.529V395.566H579.821V386.641H604.933V407.829C601.871 410.966 597.908 413.416 593.008 415.191C588.121 416.966 582.983 417.841 577.608 417.841C568.233 417.841 561.021 415.254 555.983 410.054C550.946 404.866 548.421 397.491 548.421 387.954C548.421 378.466 550.958 371.191 556.021 366.141C561.096 361.079 568.383 358.554 577.896 358.554C591.421 358.554 600.021 363.554 603.708 373.566L592.583 376.916C591.383 374.004 589.496 371.791 586.933 370.291C584.371 368.791 581.358 368.041 577.896 368.041C572.233 368.041 567.921 369.754 564.983 373.191C562.033 376.629 560.558 381.554 560.558 387.954C560.558 394.466 562.083 399.504 565.121 403.066C568.158 406.616 572.433 408.404 577.946 408.404Z" fill="black"/>
<path d="M615.72 359.416H627.782V417.029H615.72V359.416Z" fill="black"/>
<path d="M685.974 400.429C685.974 406.066 683.874 410.379 679.699 413.366C675.511 416.354 669.374 417.841 661.274 417.841C653.886 417.841 648.099 416.541 643.899 413.916C639.699 411.304 636.999 407.341 635.799 402.016L647.449 400.104C648.249 403.154 649.786 405.366 652.074 406.741C654.361 408.116 657.536 408.804 661.599 408.804C670.024 408.804 674.236 406.241 674.236 401.116C674.236 399.491 673.749 398.141 672.786 397.079C671.811 396.016 670.449 395.129 668.699 394.416C666.936 393.704 663.561 392.854 658.574 391.841C654.274 390.829 651.274 390.016 649.574 389.404C647.886 388.791 646.361 388.066 644.999 387.241C643.636 386.404 642.474 385.404 641.524 384.229C640.574 383.066 639.824 381.691 639.299 380.104C638.761 378.529 638.499 376.716 638.499 374.666C638.499 369.454 640.449 365.466 644.361 362.704C648.274 359.941 653.974 358.554 661.436 358.554C668.574 358.554 673.949 359.679 677.524 361.904C681.111 364.141 683.424 367.841 684.461 372.991L672.761 374.579C672.161 372.104 670.949 370.241 669.099 368.979C667.261 367.729 664.624 367.104 661.186 367.104C653.886 367.104 650.236 369.391 650.236 373.966C650.236 375.466 650.624 376.691 651.399 377.654C652.174 378.604 653.324 379.416 654.849 380.079C656.386 380.754 659.474 381.591 664.136 382.604C669.674 383.766 673.624 384.854 676.011 385.854C678.399 386.841 680.286 388.004 681.674 389.329C683.074 390.641 684.136 392.229 684.874 394.066C685.599 395.904 685.974 398.029 685.974 400.429Z" fill="black"/>
<path d="M720.854 368.741V417.029H708.791V368.741H690.179V359.416H739.491V368.741H720.854Z" fill="black"/>
<path d="M745.994 359.416H758.057V417.029H745.994V359.416Z" fill="black"/>
<path d="M796.173 408.354C803.448 408.354 808.498 404.704 811.335 397.404L821.848 401.366C819.585 406.929 816.26 411.066 811.885 413.779C807.51 416.491 802.273 417.841 796.173 417.841C786.898 417.841 779.735 415.229 774.685 409.979C769.623 404.729 767.098 397.391 767.098 387.954C767.098 378.491 769.535 371.229 774.41 366.166C779.298 361.091 786.373 358.554 795.635 358.554C802.398 358.554 807.91 359.916 812.16 362.629C816.41 365.341 819.398 369.329 821.11 374.579L810.485 377.491C809.585 374.604 807.81 372.304 805.185 370.591C802.56 368.891 799.448 368.041 795.885 368.041C790.435 368.041 786.298 369.729 783.473 373.116C780.648 376.491 779.235 381.441 779.235 387.954C779.235 394.579 780.685 399.641 783.598 403.129C786.498 406.616 790.685 408.354 796.173 408.354Z" fill="black"/>
<path d="M876.723 400.429C876.723 406.066 874.623 410.379 870.448 413.366C866.26 416.354 860.123 417.841 852.023 417.841C844.635 417.841 838.848 416.541 834.648 413.916C830.448 411.304 827.748 407.341 826.548 402.016L838.198 400.104C838.998 403.154 840.535 405.366 842.823 406.741C845.11 408.116 848.285 408.804 852.348 408.804C860.773 408.804 864.985 406.241 864.985 401.116C864.985 399.491 864.498 398.141 863.535 397.079C862.56 396.016 861.198 395.129 859.448 394.416C857.685 393.704 854.31 392.854 849.323 391.841C845.023 390.829 842.023 390.016 840.323 389.404C838.635 388.791 837.11 388.066 835.748 387.241C834.385 386.404 833.223 385.404 832.273 384.229C831.323 383.066 830.573 381.691 830.048 380.104C829.51 378.529 829.248 376.716 829.248 374.666C829.248 369.454 831.198 365.466 835.11 362.704C839.023 359.941 844.723 358.554 852.185 358.554C859.323 358.554 864.698 359.679 868.273 361.904C871.86 364.141 874.173 367.841 875.21 372.991L863.51 374.579C862.91 372.104 861.698 370.241 859.848 368.979C858.01 367.729 855.373 367.104 851.935 367.104C844.635 367.104 840.985 369.391 840.985 373.966C840.985 375.466 841.373 376.691 842.148 377.654C842.923 378.604 844.073 379.416 845.598 380.079C847.135 380.754 850.223 381.591 854.885 382.604C860.423 383.766 864.373 384.854 866.76 385.854C869.148 386.841 871.035 388.004 872.423 389.329C873.823 390.641 874.885 392.229 875.623 394.066C876.348 395.904 876.723 398.029 876.723 400.429Z" fill="black"/>
</g>
<defs>
<clipPath id="clip0_1_2">
<rect width="906" height="419" fill="white"/>
</clipPath>
</defs>
</svg>
